/vscmnt/brussel_pixiu_data/_data_brussel/112/vsc11236/PredSimResults/SUBJ06mtu3D/worker1.mot
version=1
nRows=9
nColumns=50
inDegrees=yes
endheader
                time	         pelvis_tilt	         pelvis_list	     pelvis_rotation	           pelvis_tx	           pelvis_ty	           pelvis_tz	       hip_flexion_r	     hip_adduction_r	      hip_rotation_r	        knee_angle_r	       ankle_angle_r	         mtp_angle_r	       hip_flexion_l	     hip_adduction_l	      hip_rotation_l	        knee_angle_l	       ankle_angle_l	         mtp_angle_l	    lumbar_extension	      lumbar_bending	     lumbar_rotation	 ercspn_r/activation	 intobl_r/activation	 extobl_r/activation	    abd_r/activation	    add_r/activation	hamstrings_r/activation	bifemsh_r/activation	glut_max_r/activation	iliopsoas_r/activation	rect_fem_r/activation	  vasti_r/activation	gastroc_r/activation	 soleus_r/activation	tib_ant_r/activation	 ercspn_l/activation	 intobl_l/activation	 extobl_l/activation	    abd_l/activation	    add_l/activation	hamstrings_l/activation	bifemsh_l/activation	glut_max_l/activation	iliopsoas_l/activation	rect_fem_l/activation	  vasti_l/activation	gastroc_l/activation	 soleus_l/activation	tib_ant_l/activation	
          0.00000000	         -6.38812757	         -3.50622605	          8.42418537	          0.00000000	          0.92957674	         -0.01436187	         29.64723814	          0.36151795	         -3.83731301	         -1.32865901	          4.61084313	          0.21844599	        -11.00095380	         -3.56478824	          4.52667421	         -8.47509462	         10.19023891	         29.74580969	         -4.07953293	          1.37414138	         -0.26544191	          0.11929729	          0.18324666	          0.01967287	          0.00999999	          0.08105073	          0.17087278	          0.25051360	          0.01162415	          0.18329776	          0.00999999	          0.00999999	          0.02898387	          0.00999999	          0.36674656	          0.06599121	          0.00999999	          0.00999999	          0.05726563	          0.00999999	          0.01340404	          0.13265041	          0.04717192	          0.38439125	          0.02636647	          0.00999999	          0.38589754	          0.33480106	          0.01789086	
          0.01283863	         -6.49604050	         -3.43036863	          8.40459364	          0.01740737	          0.92737357	         -0.01367297	         29.67665019	          0.51158948	         -3.59959570	         -2.84648254	          4.12157582	          0.21854859	        -11.32907932	         -3.56927702	          4.01133761	         -9.63609946	          9.43377188	         31.70941592	         -3.75050217	          1.64159990	         -0.53271043	          0.09826980	          0.18861539	          0.01620531	          0.00999999	          0.10973688	          0.15457789	          0.20635776	          0.03793815	          0.15098947	          0.00999999	          0.00999999	          0.02875616	          0.01903587	          0.37735714	          0.09134896	          0.00999999	          0.00999999	          0.04717192	          0.03937360	          0.01812111	          0.10926929	          0.03885734	          0.39101076	          0.02171909	          0.01362267	          0.35690895	          0.31292155	          0.01473739	
          0.02567725	         -6.58545369	         -3.35592234	          8.32527311	          0.03515280	          0.92542611	         -0.01289873	         29.56896755	          0.65630110	         -3.37075371	         -4.35830336	          3.60003678	          0.20645594	        -11.53821480	         -3.56718057	          3.46123221	        -11.06767699	          8.50970030	         33.72112911	         -3.40928297	          1.92974882	         -0.78995716	          0.08705965	          0.16039406	          0.01334894	          0.05674506	          0.09039453	          0.14029185	          0.16998489	          0.07478924	          0.12437588	          0.00999999	          0.00999999	          0.02368756	          0.01568058	          0.45866278	          0.09326982	          0.00999999	          0.00999999	          0.03885734	          0.03243356	          0.01492711	          0.09000935	          0.03200830	          0.39249673	          0.01789085	          0.02636647	          0.32489501	          0.28693824	          0.01213976	
          0.03851588	         -6.65847087	         -3.27466166	          8.18664314	          0.05296124	          0.92397521	         -0.01202439	         29.36136548	          0.81253192	         -3.18121655	         -5.67270865	          2.86528801	          0.17966852	        -11.53533510	         -3.54719400	          2.88265447	        -12.88493311	          7.36138436	         35.76249150	         -3.08807580	          2.22706465	         -1.03131093	          0.09864797	          0.13212280	          0.01099604	          0.11681314	          0.14296988	          0.12331021	          0.14002314	          0.11651753	          0.10245323	          0.00999999	          0.00999999	          0.01951236	          0.01291670	          0.50286165	          0.12764399	          0.00999999	          0.00999999	          0.03200830	          0.04556481	          0.02240949	          0.07414419	          0.02636648	          0.38754000	          0.01473739	          0.02171909	          0.26881926	          0.23656905	          0.00999999	
          0.05135451	         -6.71341069	         -3.19053984	          7.99633032	          0.07063690	          0.92317820	         -0.01106804	         29.11011287	          0.98363053	         -3.01852972	         -6.97449985	          2.37121485	          0.14242247	        -11.22734225	         -3.51331748	          2.27674533	        -15.22941087	          6.00250169	         37.69778797	         -2.80317125	          2.53673802	         -1.25285613	          0.10436753	          0.10883467	          0.00999999	          0.16444238	          0.17990964	          0.10986490	          0.11534249	          0.15588350	          0.08439470	          0.00999999	          0.00999999	          0.01607309	          0.01063999	          0.52365935	          0.15819487	          0.00999999	          0.00999999	          0.02636648	          0.07148213	          0.02249104	          0.06107544	          0.02171909	          0.37247854	          0.01213976	          0.01789085	          0.22143684	          0.19487110	          0.00999999	
          0.06419313	         -6.74981986	         -3.10399120	          7.75954772	          0.08800910	          0.92312924	         -0.01005787	         28.83463282	          1.16349593	         -2.87385373	         -8.29239423	          2.18452716	          0.11345914	        -10.54561037	         -3.46997833	          1.63436458	        -18.19267245	          4.45477150	         39.28636655	         -2.56631869	          2.85861023	         -1.44991336	          0.09761449	          0.08965134	          0.00999999	          0.18871190	          0.18329773	          0.09933007	          0.09501208	          0.17124960	          0.06951918	          0.00999999	          0.07132156	          0.01324003	          0.00999999	          0.52662250	          0.18154736	          0.00999999	          0.00999999	          0.02171909	          0.10351486	          0.01965105	          0.05031021	          0.01789085	          0.33847027	          0.00999999	          0.01473739	          0.18240611	          0.16052287	          0.00999999	
          0.07703176	         -6.76958195	         -3.01019941	          7.48075686	          0.10496057	          0.92389942	         -0.00902645	         28.47627195	          1.34690881	         -2.72175656	         -9.48014055	          2.20059843	          0.09014497	         -9.46814963	         -3.42406905	          0.94234783	        -21.78109917	          2.78774874	         40.09402819	         -2.38454090	          3.18614903	         -1.61947583	          0.09115217	          0.07384928	          0.00999999	          0.18733750	          0.15098944	          0.09021078	          0.07826513	          0.16461042	          0.05726565	          0.00999999	          0.13097810	          0.01090632	          0.00999999	          0.51007000	          0.17789878	          0.00999999	          0.00999999	          0.01789085	          0.11808387	          0.01618735	          0.04144247	          0.01473739	          0.29285123	          0.00999999	          0.01213976	          0.15025498	          0.13222891	          0.00999999	
          0.08987039	         -6.77490808	         -2.89811369	          7.16421968	          0.12145914	          0.92546002	         -0.00800691	         27.97916136	          1.52199761	         -2.54287489	        -10.42807106	          2.38908737	          0.07446646	         -8.02142577	         -3.38306028	          0.20728344	        -25.91941479	          1.01285114	         39.82890101	         -2.25894470	          3.50629479	         -1.75881330	          0.07508558	          0.06083252	          0.00999999	          0.17381597	          0.12437586	          0.08097054	          0.06447002	          0.15146069	          0.04717193	          0.00999999	          0.16513225	          0.00999999	          0.00999999	          0.48721311	          0.18262914	          0.00999999	          0.00999999	          0.01473739	          0.11885656	          0.01333415	          0.03611041	          0.01213976	          0.24123294	          0.00999999	          0.00999999	          0.12377085	          0.10892208	          0.00999999	
          0.10270901	         -6.76725438	         -2.75838682	          6.81156972	          0.13753900	          0.92769170	         -0.00700683	         27.31417054	          1.67728461	         -2.33513219	        -11.07827422	          2.69632469	          0.06960863	         -6.27701871	         -3.35362798	         -0.55036044	        -30.40106237	         -1.07638493	         38.66162544	         -2.18448345	          3.80386107	         -1.86610788	          0.06185090	          0.05011010	          0.00999999	          0.15979615	          0.10245321	          0.07656776	          0.05310646	          0.14095866	          0.03885735	          0.00999999	          0.18153245	          0.00999999	          0.00999999	          0.45770655	          0.18701095	          0.00999999	          0.00999999	          0.01213976	          0.12384333	          0.01098386	          0.07567617	          0.00999999	          0.19871292	          0.00999999	          0.00999999	          0.10195485	          0.08972334	          0.00999999	
